<svg width="104" height="24" viewBox="0 0 104 24" fill="none" xmlns="http://www.w3.org/2000/svg">
<path d="M31.3577 21.6753L28.6667 23.2429V14.233L27.3347 15.0163V24L24.645 22.4596V2.32419L27.3347 0.783691V14.5985L28.6667 13.8147V7.75666L31.3577 9.29664V12.6152L29.0311 13.9455L31.3577 15.277V21.6753Z" fill="black"/>
<path d="M35.3508 24L32.6611 22.4597V16.2698L36.6828 13.9456V8.17373L35.3508 8.95743V13.1639L32.6611 14.7294V10.0809L36.6828 7.75671L39.3738 9.2967V21.6753L35.3508 24ZM35.3508 23.5822L36.6828 22.7995V14.3634L35.3508 15.1206V23.5822Z" fill="black"/>
<path d="M44.6981 13.9723V8.14976L43.3685 8.93105V23.9749L40.6777 22.4334V10.0552L44.6981 7.73047L47.3891 9.27032V12.4049L44.6981 13.9723Z" fill="black"/>
<path d="M55.4051 21.6501L51.3845 23.9749L48.6935 22.4334V10.0552L52.7165 7.73048V0L55.4051 1.54053L55.4051 21.6501ZM51.3845 8.93106V23.5565L52.7165 22.7732V8.14977L51.3845 8.93106Z" fill="black"/>
<path d="M59.4006 5.40514L56.7096 6.94687V2.29848L59.4006 0.756226V5.40514ZM56.7096 10.0553L59.4006 8.51424V23.9749L56.7096 22.4335V10.0553Z" fill="black"/>
<path d="M60.7067 10.0552L64.7286 7.73047L67.4177 9.27031V21.6501L64.7286 23.1905V8.14975L63.3958 8.93104V23.9749L60.7067 22.4334V10.0552Z" fill="black"/>
<path d="M71.4123 24L68.7227 22.4597V16.2698L72.7443 13.9456V8.17373L71.4123 8.95743V13.1639L68.7227 14.7294V10.0809L72.7443 7.75671L75.4329 9.2967V21.6753L71.4123 24ZM71.4123 23.5822L72.7443 22.7995V14.3634L71.4123 15.1206V23.5822Z" fill="black"/>
<path d="M76.7388 2.29848L79.4284 0.756226V23.9749L76.7388 22.4335V2.29848Z" fill="black"/>
</svg>
